<?xml version="1.0" encoding="utf-8"?>
<!-- Generator: Adobe Illustrator 27.0.0, SVG Export Plug-In . SVG Version: 6.00 Build 0)  -->
<svg version="1.1" id="Layer_1" xmlns="http://www.w3.org/2000/svg" xmlns:xlink="http://www.w3.org/1999/xlink" x="0px" y="0px"
	 viewBox="0 0 2642.1 439" style="enable-background:new 0 0 2642.1 439;" xml:space="preserve">
<style type="text/css">
	.st0{fill:#005BAD;}
	.st1{display:none;fill:#005BAD;}
	.st2{font-family:'Lora-Italic';}
	.st3{font-size:282.178px;}
</style>
<g>
	<path class="st0" d="M440,154.6c-1.2-2-3.2-3.3-5.4-3.7c-2.2-0.4-4.6,0.3-6.2,1.8L372,203.7l-74.1-23.5c-2.4-0.7-5-0.2-7,1.3
		c-1.9,1.6-3,4-2.8,6.5c4.1,47.6,53,82.9,71.8,94.9c-12.2,13.8-30.3,20.9-48.7,19.1c-21.5-0.8-41.7-10.7-55.6-27.1
		c-13.1-16-20.1-36.1-19.8-56.8V100.3c0-10.7-6.3-22.1-18.6-34c-11.3-10.6-24.4-19.1-38.7-25L114,13.4c-3-1.3-6.5-0.6-8.8,1.8
		C58.8,66,90.2,112,101.7,125.8c-9.7,25-17.7,50.6-23.9,76.7c-10.9,39.1-8.5,80.8,6.9,118.4v39.2l-70.2,38.7
		c-4.3,2.4-6.6,7.3-5.7,12.1c1,4.8,4.9,8.5,9.9,9.1c11.4,1.3,29.9,2.9,53.7,3.3h1.4c15.6,0.2,30.9-4,44.4-11.9
		c7.8-4.4,14.4-10.5,19.2-18c31.8,26.9,74.9,33.6,109.3,33.6c19,0,38-1.9,56.7-5.8c111.2-15.7,130.6-129.6,132.9-146.9
		C475.9,219.8,441.5,157.3,440,154.6L440,154.6z M110.5,398.5c-11.4,6.6-24.5,10-37.7,9.7c-16.2,0-29.8-1-40.3-2l63.9-34.9
		c2.4-1.3,3.9-3.9,3.9-6.6V349c4.2,6.5,9.1,12.5,14.4,18c3.4,5.5,7.2,10.7,11.5,15.6C122.6,389.3,117.2,394.8,110.5,398.5
		L110.5,398.5z M423.1,266.9c-0.9,1.1-1.4,2.4-1.5,3.8c-0.4,5-12.4,120.1-120.8,135.6c-1.2,0-127.4,28-173.7-48l-1.1-1.3
		c-11.1-11.7-20-25.2-26.2-40.1c-0.2-0.6-0.4-1.1-0.7-1.6c-14.1-34.7-16.3-73-6.2-109c0-0.6,14.2-58,24.9-78.1
		c1.4-2.9,0.9-6.4-1.4-8.7c-12.2-11.5-19.4-27.4-20-44.1c-0.6-16.8,5.4-33.1,16.8-45.4l59.7,25.6v0c12.7,5.2,24.3,12.6,34.3,21.9
		c7.3,5.7,12.3,13.9,13.9,23.1v117.6c-0.4,24.2,7.9,47.8,23.3,66.5c16.4,19.5,40.3,31.3,65.8,32.4c13.2,1.3,26.4-1,38.3-6.7
		c11.9-5.8,22-14.7,29.1-25.8c1.1-1.8,1.4-3.9,0.9-5.9c-0.5-2-1.8-3.7-3.7-4.6c-0.6-0.4-56.7-31.8-69.1-75.6l66.5,21
		c2.6,0.8,5.4,0.1,7.4-1.7l51.9-47C438.4,188.6,450.7,230.4,423.1,266.9L423.1,266.9z"/>
	<path class="st0" d="M174.1,85.7c0,4.1-1.5,8-4.4,10.9c-2.9,2.9-6.8,4.5-10.8,4.6c-4.1,0-8-1.6-10.9-4.4s-4.5-6.8-4.5-10.8
		c0-4.1,1.6-8,4.5-10.8c2.9-2.9,6.8-4.5,10.9-4.4c4,0,7.9,1.6,10.7,4.4C172.4,77.8,174,81.7,174.1,85.7L174.1,85.7z"/>
	<path class="st1" d="M107.1-132.1c-15.7,0-30.8,6.2-41.9,17.3S47.8-88.6,47.8-72.9S54.1-42.1,65.2-31s26.2,17.3,41.9,17.3
		S138-19.9,149.1-31c11.1-11.1,17.4-26.2,17.4-41.9c0-15.7-6.3-30.8-17.4-41.9C137.9-125.9,122.9-132.1,107.1-132.1L107.1-132.1z
		 M107.1-28.8c-11.7,0-23-4.7-31.3-13C67.6-50.1,62.9-61.3,63-73.1c0-11.7,4.8-23,13.1-31.2c8.3-8.3,19.6-12.8,31.4-12.8
		c11.7,0.1,23,4.8,31.2,13.2c8.2,8.4,12.8,19.6,12.7,31.4c-0.1,11.6-4.9,22.7-13.1,30.9S118.8-28.8,107.1-28.8L107.1-28.8z"/>
</g>
<text transform="matrix(1 0 0 1 500.7358 357.6348)" class="st2 st3">Marine Miracles</text>
</svg>
